<?xml version="1.0" encoding="UTF-8"?>
<svg xmlns="http://www.w3.org/2000/svg" viewBox="0 0 3284.52 5737.23">
  <defs>
    <style>
      .cls-1, .cls-2 {
        fill: none;
        stroke: #000;
        stroke-miterlimit: 10;
      }

      .cls-3 {
        fill: #1e2370;
      }

      .cls-4 {
        fill: #85f0cf;
      }

      .cls-2 {
        stroke-width: 7px;
      }
    </style>
  </defs>
  <g id="Calque_1">
    <circle class="cls-2" cx="594.29" cy="243.23" r="46.5"/>
    <path class="cls-2" d="M256.49,302.78c-.51-5.88-5.6-9.13-11.53-11.08-.1,1.33-.17,2.67-.17,4.03,0,4.24.52,8.36,1.48,12.3,1.57.09,3.14.14,4.71.07,3.87-.17,5.88-1.07,5.51-5.31Z"/>
    <path class="cls-2" d="M332.79,305.33c-4.86-.22-9.72-.03-14.56.38,1.67,3.4,4.56,6.33,8.1,6.99,6.33,1.19,3.63,10.82-2.66,9.64-7.68-1.44-13.1-8.23-15.57-15.53-1.01.13-2.01.26-3.01.39-.48.06-.92.06-1.33,0-.63.08-1.31.03-2.04-.18-9.93-2.87-10.12-15.87-6.21-23.62,1.42-2.82,3.57-4.92,6.22-6.13.52-.56,1.19-1.03,2.03-1.34,7.8-2.9,16.68-1.75,24.62,0,.62.14,1.15.36,1.6.64,4.85-.2,9.58-.86,14.17-2.34-8.18-17.99-26.3-30.51-47.35-30.51-7.55,0-14.72,1.61-21.19,4.5-1.63,4.51-4.67,8.18-6.53,12.99-.14.35-.25,1.44-.39,2.47.67.01,1.35.03,2.02.02,4.66-.02,9.31-.37,13.94-.89,6.39-.73,6.32,9.28,0,10-6.08.69-12.44,1.32-18.56.78-3.71-.32-6.86-1.79-7.68-5.7-.53-2.52-.19-5.26.56-7.85-5.79,6.14-10.1,13.68-12.37,22.06,10.55,3.33,20.03,9.47,19.93,21.84-.09,11.29-8.09,13.59-16.83,13.82,1.77,3.76,3.97,7.28,6.54,10.49,8.85-4.76,22.81-4.05,31.98-4,6.44.03,6.44,10.03,0,10-5.8-.03-17.7-1.61-24.73,1.39,9.02,7.53,20.63,12.06,33.29,12.06,24.49,0,45.01-16.93,50.53-39.73-4.56-1.84-9.82-2.45-14.54-2.66Z"/>
    <polyline class="cls-2" points="625.29 242.73 565.26 242.73 519.59 242.73 498.26 242.73 546.66 153.16 565.26 118.73 581.43 126.57 520.26 243.73"/>
    <g>
      <g>
        <path d="M95.23,12.57c-.06,1.9-1.51,6.56-5.43,13.39-3.92,6.83-9.55,12.25-12.88,16.3-4.78,5.81-9.45,12.83-14.15,16.36s-10.73,6.33-17.97,8.47c10.11.48,16.92,1.13,19.14,1.26,2.23.13,4.45.08,6.63-.17,3.15-.36,6.21-1.59,9-3.8.29-.16.46-.24.52-.25.14.03.23.09.23.15.01.33-.95,1.17-2.71,2.28-3.25,2.02-7.85,3.27-13.59,3.86-4.21.44-8.16.56-11.76.42-3.6-.14-8.9-.66-15.33-1.26-5.37,1.3-10.76,2.24-16.01,2.91-9.31,1.18-12.95,1.01-10.92-.52,1.9-1.43,6.18-2.72,12.83-3.87,5.15-.89,11.86-1.45,21.22-1.07,3.72-1.34,7.24-3.11,10.5-5.34,3.26-2.23,7.61-5.84,12.48-11.12-8.11,5.64-16.14,11.24-26.07,13.07-4.77.88-7.81.62-8.74-.66-.93-1.27.41-3.35,3.67-6.42,4.99-4.7,12.65-10.11,21.05-17.26,8.4-7.16,13.81-12.9,18.18-16.18,2.02-1.51,3.3-1.97,4.02-1.28.72.69.75,2.44-.07,5.16-1.45,4.8-4.66,10.74-10.94,17.11-6.28,6.37-12.27,9.78-16.68,10.94-1.87.49-3.14.42-3.72-.16-.58-.58-.31-1.53.73-2.88.8-1.04,1.87-2.07,3.18-3.1,1.31-1.03,2.43-1.75,3.42-2.12,1.33-.5,1.6-.14.81,1.09-.43.67-1.08,1.35-1.96,2.05-.88.69-1.68,1.14-2.37,1.36-1.13.36-1.34.09-.66-.8.44-.57.57-.83.39-.77-.49.17-1.19.86-2.09,2.06-.92,1.22-1.14,2.07-.59,2.57.55.5,1.72.54,3.45.07,4.03-1.08,9.73-4.42,15.85-10.67,6.12-6.25,9.25-11.94,10.64-16.4.75-2.4.75-4.02.14-4.77-.61-.75-1.69-.46-3.39.79-4.1,3.01-9.38,8.87-17.82,16.24-6.99,6.11-14.69,11.82-21.29,18.27-2.39,2.33-3.2,3.99-2.23,4.91.97.92,3.6,1.04,7.68.25,3.51-.67,7.46-1.97,11.59-4.03,4.13-2.06,10.35-5.33,15.29-10.24,5.98-5.96,9.44-12.4,11.48-15.48,1.96-2.95,4.06-6.13,6.21-9.57,4.19-6.68,6.51-10.86,8.09-11.94.66-.45.98-.2.94.77ZM35.69,69.48c-8.62-.75-14.1-.5-17.63.08-3.67.6-6.12,1.37-7.34,2.3-1.64,1.24,2.07,1.28,11.11.09,4.89-.64,9.54-1.44,13.85-2.47ZM94.81,12.85c.02-.59-.16-.75-.55-.49-1.2.81-2.92,3.95-5.73,9.08-2.52,4.59-5.85,11.27-10.85,19.58,4.68-4.64,8.82-10.01,12.29-16.19,3.46-6.18,4.79-10.33,4.85-11.99Z"/>
        <path d="M102.2,50.54c.02.43-.7,1.26-2.26,2.55-2.33,1.93-4.66,3.84-6.74,4.18-.87.14-1.64.11-2.29-.09-3.99,5.55-8.11,8.33-11.58,8.75-1.8.22-3.22-.21-4.21-1.25-.99-1.04-1.25-2.38-.86-4.05.88-3.72,4.55-7.78,10.13-12.65,3.92-3.44,6.76-5.59,8.97-6.22,2.06-.58,3.09.37,3.06,2.86-.03,3.12-1.55,7.26-5.16,12.11.54.22,1.16.28,1.86.16,1.26-.21,2.75-1.01,4.41-2.45,1.65-1.43,2.95-2.29,3.89-3.66.28-.32.48-.46.61-.43.1.02.16.09.17.19ZM95.86,44.84c.03-2.19-.83-3.04-2.59-2.55-2.2.61-4.94,3.69-8.95,8.86-4.01,5.16-6.66,9.02-7.23,11.95-.34,1.7.48,2.43,2.44,2.18,3.21-.4,7.11-3.06,10.98-8.34-.75-.7-1.08-1.49-1.01-2.38.1-1.28.73-2.7,1.83-4.29,1.1-1.59,2.1-2.51,3.04-2.73.41-.1.68.11.83.61.43-1.03.65-2.14.67-3.3Z"/>
        <path d="M126.85,35.46c-.71,9.36-5.18,17.56-6.84,21.09-1.69,3.59-2.69,6.09-2.48,7.19.22,1.12.93,1.76,2.15,1.91,2.71.34,6.68-3.11,9.76-9.18.07-.2.18-.28.31-.25.16.03.29.14.31.26,0,.05-.06.22-.19.47-.38.67-.58,1.01-1,1.7-3.02,5.08-6.65,7.87-9.34,7.54-1.38-.17-2.58-.73-3.59-1.71-1.01-.98-1.61-2.16-1.83-3.53-.22-1.37.04-2.87.71-4.47-3.67,5.34-7.45,8.22-9.99,7.91-1.58-.19-2.95-.96-4.04-2.34-1.1-1.37-1.63-3.02-1.66-4.9-.07-4.5,2.73-8.09,7.51-10.31,3.81-1.77,6.56-2.19,8.78-1.56,1.49.43,2.4,1.37,2.76,2.83.17.68.14,1.39-.09,2.14,3.35-7.44,4.36-10.8,5.03-16.79.72.54,1.39.96,2,1.26.15.08.73.33,1.71.75ZM117.71,48.24c-.3-1.29-1.05-2.11-2.23-2.44-2.17-.61-4.51.77-7.85,4.59-3.34,3.82-5.36,7.43-5.23,10.39.08,1.8.94,2.8,2.57,3.01,2.38.3,6.38-2.96,10.31-8.88,2.09-3.2,2.73-5.33,2.42-6.68Z"/>
        <path d="M157.21,62.23c.25.3-.03,1.29-1.26,3.12-1.38,2.03-4.35,3.81-8.98,5.39-.29,1.06-.44,1.6-.78,2.69-1.52,5.03-4.92,9.16-9.82,12.22-4.71,2.93-9.56,4.59-13.88,4.59-1.58,0-2.94-.33-4.06-.99-1.12-.66-1.75-1.49-1.89-2.45-.77-5.23,6.74-10.42,19.45-13.92,2.74-.77,4.41-1.25,5.15-1.51,1.27-3.83,1.74-5.66,2.34-9.13-1.33,2.56-2.67,4.35-3.58,5.11-.91.76-2.11,1.07-3.55.89-1.55-.19-3.08-.88-4.53-2.08-1.45-1.21-2.4-2.59-2.92-4.13-1.35-4.03.58-7.16,4.79-8.83,2.81-1.11,5.02-1.26,7.08-.67,1.44.41,2.59,1.29,3.47,2.63.24.37.41.77.52,1.23.05-1.03.05-1.53.03-2.52.75.32,1.36.55,1.84.69.63.18,1.49.36,2.59.57-.03.13.09,1.25,0,3.57-.19,4.22-.61,6.51-2.13,11.45,3.09-1.11,5.22-2.15,6.52-3.19,1.3-1.04,2.37-2.6,2.97-4.53.09-.3.2-.44.32-.4.13.03.24.11.32.21ZM140.92,71.89c-.48.18-1.94.64-4.5,1.43-12.41,3.89-19.88,9-19.18,13.57.12.79.63,1.45,1.55,1.99.92.54,2.05.8,3.36.8,4.02,0,7.65-1.38,10.54-3.98,2.89-2.6,5.9-7.19,7.96-13.2.11-.25.16-.37.27-.61ZM143.82,55.05c-.67-1.04-1.6-1.73-2.78-2.06-2.17-.61-3.86.41-5.9,3.51-2.04,3.1-3.01,6.13-2.06,8.65.58,1.53,1.72,2.41,3.45,2.63,1.75.22,3.99-1.45,5.9-4.59,2.42-3.97,2.46-6.46,1.39-8.13Z"/>
        <path d="M177.22,66.46c.06.05.1.21.1.48-.01.38-.02.58-.06.98-.4,3.15-3.65,4.9-8.07,4.35-2.09-.26-4.27-.94-6.45-2.1-2.18-1.15-3.8-2.49-4.94-3.96-2.71-3.49-1.63-5.95,2.15-6.79,1.99-.44,3.83-.3,5.82.27.86.25,1.81.64,2.87,1.16,1.06.53,1.92,1.04,2.56,1.54,1.5,1.17,1.6,1.87.16,2.18-1.44.31-8.94-.91-9.9-.08-.36.31.24,3.05,1.33,4.36,1.36,1.63,3.43,2.62,6.19,2.97,4.7.6,7.97-1.58,7.6-5.33-.02-.19.09-.27.29-.22.12.03.24.1.35.18ZM168.25,61.14c-.65-.53-1.39-.92-2.24-1.15-1.28-.36-2.21-.22-3.01.52-.8.74-1.29,1.94-1.57,3.67,3.25.08,5.54-.18,6.82-.75,1.28-.57,1.21-1.29,0-2.29Z"/>
      </g>
      <path class="cls-1" d="M113.22,76.75s-44.61-3.74-105.25,3.92"/>
      <path class="cls-1" d="M208.35,88.99s-4.68-18.37-44.29-40.42"/>
      <path class="cls-1" d="M208.39,88.96s-13.4-13.4-58.72-12.13"/>
    </g>
  </g>
  <g id="Calque_2">
    <g id="Calque_1-2" data-name="Calque_1">
      <g>
        <path class="cls-4" d="M2972.95,5428.62c-23.22-.67-48.3.57-71.79,6.43-74.34,62.13-133.74,132.74-149.95,152.59-3.25,3.98-6.08,8.24-8.44,12.8-7.5,14.45-19.33,42.46,21.21,10.3,3.54-2.81,6.89-5.84,10.05-9.06,25.06-25.6,166.08-163.46,290.79-156.96-29.48-10.34-61.2-15.21-91.86-16.1Z"/>
        <path class="cls-3" d="M3232.37,5374.95c-38.17-55.58-169.44-56.52-280.5,21.1-4,2.79-7.97,5.65-11.92,8.54,43.5-3.37,88.29,2.09,129.34,15.8,40.92,13.67,81.06,37.02,102.12,75.25,60.32,67.82,32.33,171.69,28.83,189.69-.45,2.31-1.03,4.49-1.82,6.72-17.66,42.94,16.06,74.25,52.55,2.54,1.22-2.39.14-.29,2.1-4.07,51.67-132.37,36.08-247.04-20.71-315.57Z"/>
        <path d="M3163.43,5571.88c-3.18,2.38-6.75,4.16-10.51,5.44-27.24,9.31-157.72,48.91-175.31-39.99-19.66-99.34,15.15.49,43.89,14.16,30.96,15,60.16,16.65,101.67,14.49,36.9-1.92,51.71-2.69,40.26,5.89Z"/>
      </g>
    </g>
  </g>
</svg>