<?xml version="1.0" encoding="UTF-8"?>
<svg id="Calque_2" data-name="Calque 2" xmlns="http://www.w3.org/2000/svg" viewBox="0 0 549.35 401.96">
  <defs>
    <style>
      .cls-1 {
        fill: #1e2370;
      }

      .cls-2 {
        fill: #f08784;
      }
    </style>
  </defs>
  <g id="Calque_1-2" data-name="Calque 1">
    <g>
      <path class="cls-2" d="M237.78,93.35c-23.22-.67-48.3.57-71.79,6.43C91.64,161.92,32.24,232.52,16.03,252.38c-3.25,3.98-6.08,8.24-8.44,12.8-7.5,14.45-19.33,42.46,21.21,10.3,3.54-2.81,6.89-5.84,10.05-9.06,25.06-25.6,166.08-163.46,290.79-156.96-29.48-10.34-61.2-15.21-91.86-16.1Z"/>
      <path class="cls-1" d="M497.2,39.69c-38.17-55.58-169.44-56.52-280.5,21.1-4,2.79-7.97,5.65-11.92,8.54,43.5-3.37,88.29,2.09,129.34,15.8,40.92,13.67,81.06,37.02,102.12,75.25,60.32,67.82,32.33,171.69,28.83,189.69-.45,2.31-1.03,4.49-1.82,6.72-17.66,42.94,16.06,74.25,52.55,2.54,1.22-2.39.14-.29,2.1-4.07,51.67-132.37,36.08-247.04-20.71-315.57Z"/>
      <path d="M428.26,236.61c-3.18,2.38-6.75,4.16-10.51,5.44-27.24,9.31-157.72,48.91-175.31-39.99-19.66-99.34,15.15.49,43.89,14.16,30.96,15,60.16,16.65,101.67,14.49,36.9-1.92,51.71-2.69,40.26,5.89Z"/>
    </g>
  </g>
</svg>