<?xml version="1.0" encoding="UTF-8"?>
<svg id="Calque_2" data-name="Calque 2" xmlns="http://www.w3.org/2000/svg" viewBox="0 0 896.53 199.21">
  <defs>
    <style>
      .cls-1 {
        fill: #1e2370;
      }

      .cls-2 {
        fill: #f08784;
      }
    </style>
  </defs>
  <g id="Calque_1-2" data-name="Calque 1">
    <g>
      <path class="cls-2" d="M117.84,46.27c-11.51-.33-23.94.28-35.58,3.19C45.42,80.25,15.98,115.24,7.95,125.07c-1.61,1.97-3.01,4.08-4.18,6.34-3.72,7.16-9.58,21.04,10.51,5.1,1.75-1.39,3.42-2.89,4.98-4.49,12.42-12.69,82.31-81.01,144.11-77.79-14.61-5.13-30.33-7.54-45.52-7.98Z"/>
      <path class="cls-1" d="M246.41,19.67c-18.92-27.55-83.97-28.01-139.01,10.46-1.98,1.38-3.95,2.8-5.91,4.23,21.56-1.67,43.76,1.04,64.1,7.83,20.28,6.77,40.17,18.34,50.61,37.29,29.89,33.61,16.02,85.09,14.29,94.01-.22,1.14-.51,2.22-.9,3.33-8.75,21.28,7.96,36.8,26.04,1.26.6-1.19.07-.14,1.04-2.02,25.61-65.6,17.88-122.43-10.26-156.39Z"/>
      <path d="M212.24,117.26c-1.57,1.18-3.34,2.06-5.21,2.7-13.5,4.61-78.17,24.24-86.88-19.82-9.74-49.23,7.51.24,21.75,7.02,15.34,7.43,29.81,8.25,50.39,7.18,18.29-.95,25.62-1.33,19.95,2.92Z"/>
      <path d="M340.09,136.66c.1,1.64-1.53,2.85-3.06,2.25-4.29-1.7-10.03-3.15-15.3-3.15-3.32,0-5.31,1.2-5.31,3.05,0,6.77,27.88,7.17,27.88,26.02,0,15.8-14.34,23.37-32.93,23.37-5.23,0-15.49-.82-23.76-2.79-.96-.23-1.64-1.06-1.7-2.04-.2-3.12-.63-9.94-.88-14.03-.1-1.58,1.42-2.74,2.93-2.27,5.44,1.69,11.82,3.07,16.91,3.07,4.51,0,7.17-.93,7.17-3.19,0-5.97-27.35-5.31-27.35-27.09,0-15.67,15.93-21.64,31.6-21.64,6.17,0,14.28,1.03,21.26,2.77.95.24,1.62,1.07,1.68,2.05l.86,13.6Z"/>
      <path d="M403.56,136.66c.1,1.64-1.53,2.85-3.06,2.25-4.29-1.7-10.03-3.15-15.29-3.15-3.32,0-5.31,1.2-5.31,3.05,0,6.77,27.88,7.17,27.88,26.02,0,15.8-14.34,23.37-32.93,23.37-5.23,0-15.49-.82-23.76-2.79-.96-.23-1.64-1.07-1.7-2.05l-.88-14.02c-.1-1.58,1.42-2.75,2.93-2.28,5.44,1.69,11.82,3.07,16.91,3.07,4.51,0,7.17-.93,7.17-3.19,0-5.97-27.35-5.31-27.35-27.09,0-15.67,15.93-21.64,31.6-21.64,6.17,0,14.28,1.03,21.26,2.77.95.24,1.62,1.07,1.68,2.05l.86,13.6Z"/>
      <path d="M450.67,118.23c24.43,0,38.9,12.88,38.9,34.92s-14.47,35.05-38.9,35.05-38.9-12.75-38.9-34.79,14.47-35.18,38.9-35.18ZM444.03,153.29c0,8.89,2.12,14.21,6.64,14.21s6.64-5.44,6.64-14.21c0-9.69-2.26-15.14-6.64-15.14s-6.64,5.58-6.64,15.14Z"/>
      <path d="M627.57,124.53c.06-.91.66-1.72,1.53-2.01,13.63-4.55,27.53-4.55,28.04-4.55,29.08,0,37.31,9.43,37.31,27.09v24.71c0,.08,0,.16.01.23l1.34,12.89c.13,1.25-.78,2.36-2.03,2.48l-25.87,2.51c-1.14.11-2.19-.66-2.43-1.78l-1.57-7.45h-.8c-4.25,7.57-12.08,10.22-18.59,10.22-11.82,0-24.3-6.51-24.3-21.64,0-17.92,17.26-21.64,28.01-21.64,3.3,0,5.24,0,11.31.65,1.33.14,2.49-.9,2.49-2.24h0c0-4.51-4.78-6.11-11.95-6.11-6.45,0-14.06,1.35-20.44,3.48-1.53.51-3.08-.66-2.98-2.27l.89-14.57ZM662.05,159.79c0-1.04-.72-1.93-1.72-2.2-.75-.2-1.53-.32-2.26-.32-3.05,0-5.71,1.86-5.71,7.17,0,4.65,2.79,6.9,5.31,6.9,1.76,0,3.52-1.07,4.27-3.22.08-.24.11-.49.11-.74v-7.59Z"/>
      <path d="M734.85,102.3h3.68c1.25,0,2.26,1.01,2.26,2.26v13.54c0,1.25,1.01,2.26,2.26,2.26h7.48c1.33,0,2.37,1.14,2.25,2.46l-1.42,15.47c-.11,1.24-1.21,2.15-2.45,2.04l-5.65-.51c-1.32-.12-2.46.92-2.46,2.25v13.2c0,8.23.53,12.22,5.58,12.22.57,0,1.94-.05,3.53-.49s2.99.72,2.91,2.28l-.78,13.94c-.05.89-.62,1.66-1.45,1.99-5.25,2.09-12.97,2.98-15.89,2.98-19.65,0-26.69-7.7-26.69-24.03l.49-21.28c.03-1.12-.77-2.09-1.88-2.28l-4.82-.82c-1.09-.18-1.88-1.12-1.88-2.23v-13.91c0-1.07.76-2,1.81-2.21l5.96-1.21c.85-.17,1.53-.82,1.74-1.66l2.87-11.5c.22-.88.95-1.55,1.85-1.68l20.38-3.07c.11-.02.22-.03.34-.03Z"/>
      <path d="M813.87,137.69c.09,1.54-1.36,2.73-2.84,2.31-2.71-.78-5.68-1.19-8.64-1.19-6.37,0-13.14,4.11-13.14,14.21s5.97,13.81,13.14,13.81c3.43,0,6.11-.41,8.67-1.08,1.49-.39,2.93.76,2.85,2.3l-.81,15.36c-.05.9-.62,1.71-1.47,2.01-5.43,1.9-11.79,2.8-16.8,2.8-20.45,0-37.71-11.02-37.71-34.92,0-22.31,17.39-35.05,36.91-35.05,5.88,0,11.76.79,17.43,2.69.87.29,1.46,1.1,1.52,2.01l.9,14.76Z"/>
      <path d="M850.83,94.78c1.31-.1,2.42.94,2.42,2.25v22.66c0,3.19-.13,5.98-.66,9.69h1.33c4.25-8.1,14.21-11.15,20.05-11.15,12.75,0,22.57,7.17,22.57,23.63v42.49c0,1.25-1.01,2.26-2.26,2.26h-27.88c-1.25,0-2.26-1.01-2.26-2.26v-37.44c0-6.11-1.2-8.76-5.44-8.76-2.06,0-4.24,1.74-5.34,5.23-.07.23-.11.47-.11.71v40.27c0,1.25-1.01,2.26-2.26,2.26h-27.88c-1.25,0-2.26-1.01-2.26-2.26v-85.27c0-1.18.91-2.16,2.09-2.25l27.88-2.06Z"/>
      <path d="M540.92,108.82c1.86,0,3.47,1.32,3.82,3.15l9.43,48.5c.6,3.02.73,4.48.73,4.72h1.21c0-.24.12-1.69.73-4.72l9.43-48.5c.36-1.83,1.96-3.15,3.82-3.15h33.88c2.01,0,3.69,1.53,3.88,3.54l6.66,72.17c.21,2.28-1.59,4.25-3.88,4.25h-23.68c-2.09,0-3.81-1.65-3.89-3.74l-1.67-43.67h-1.09c0,.36-.12,2.66-.61,5.08l-7.84,39.21c-.36,1.82-1.96,3.13-3.82,3.13h-27.49c-1.86,0-3.45-1.31-3.82-3.13l-7.84-39.21c-.48-2.42-.73-4.72-.73-5.08h-1.09l-1.56,43.66c-.07,2.09-1.79,3.75-3.89,3.75h-22.45c-2.29,0-4.09-1.97-3.88-4.26l6.77-72.17c.19-2,1.87-3.53,3.88-3.53h34.98Z"/>
    </g>
  </g>
</svg>